<svg xmlns="http://www.w3.org/2000/svg" xmlns:xlink="http://www.w3.org/1999/xlink" width="500" zoomAndPan="magnify" viewBox="0 0 375 374.999991" height="500" preserveAspectRatio="xMidYMid meet" version="1.0"><defs><clipPath id="38868641a7"><path d="M 61.5 0 L 313.5 0 C 347.464844 0 375 27.535156 375 61.5 L 375 313.5 C 375 347.464844 347.464844 375 313.5 375 L 61.5 375 C 27.535156 375 0 347.464844 0 313.5 L 0 61.5 C 0 27.535156 27.535156 0 61.5 0 Z M 61.5 0 " clip-rule="nonzero"/></clipPath><clipPath id="42c0f3f913"><path d="M 158 159 L 283 159 L 283 284 L 158 284 Z M 158 159 " clip-rule="nonzero"/></clipPath><clipPath id="7f704cdde3"><path d="M 150.90625 235.5 L 234.683594 151.722656 L 290.683594 207.71875 L 206.902344 291.5 Z M 150.90625 235.5 " clip-rule="nonzero"/></clipPath><clipPath id="150e344bf8"><path d="M 164.695312 221.710938 L 220.785156 165.621094 C 224.441406 161.964844 229.402344 159.910156 234.574219 159.910156 C 239.746094 159.910156 244.707031 161.964844 248.363281 165.621094 L 276.785156 194.042969 C 280.441406 197.699219 282.496094 202.65625 282.496094 207.828125 C 282.496094 213 280.441406 217.960938 276.785156 221.617188 L 220.691406 277.710938 C 217.035156 281.367188 212.074219 283.421875 206.902344 283.421875 C 201.730469 283.421875 196.773438 281.367188 193.117188 277.710938 L 164.695312 249.289062 C 161.039062 245.632812 158.984375 240.671875 158.984375 235.5 C 158.984375 230.328125 161.039062 225.367188 164.695312 221.710938 Z M 164.695312 221.710938 " clip-rule="nonzero"/></clipPath><clipPath id="40b9c7fda4"><path d="M 233.089844 160.277344 L 375 160.277344 L 375 239.261719 L 233.089844 239.261719 Z M 233.089844 160.277344 " clip-rule="nonzero"/></clipPath><clipPath id="078c66539f"><path d="M 92 91 L 217 91 L 217 216 L 92 216 Z M 92 91 " clip-rule="nonzero"/></clipPath><clipPath id="289047f910"><path d="M 224.09375 139.488281 L 140.3125 223.269531 L 84.316406 167.269531 L 168.09375 83.492188 Z M 224.09375 139.488281 " clip-rule="nonzero"/></clipPath><clipPath id="a4ffacc510"><path d="M 210.304688 153.277344 L 154.214844 209.371094 C 150.554688 213.027344 145.597656 215.082031 140.425781 215.082031 C 135.253906 215.082031 130.292969 213.027344 126.636719 209.371094 L 98.214844 180.949219 C 94.558594 177.292969 92.503906 172.332031 92.503906 167.160156 C 92.503906 161.988281 94.558594 157.027344 98.214844 153.371094 L 154.304688 97.28125 C 157.964844 93.625 162.921875 91.570312 168.09375 91.570312 C 173.265625 91.570312 178.226562 93.625 181.882812 97.28125 L 210.304688 125.703125 C 213.960938 129.359375 216.015625 134.316406 216.015625 139.488281 C 216.015625 144.660156 213.960938 149.621094 210.304688 153.277344 Z M 210.304688 153.277344 " clip-rule="nonzero"/></clipPath><clipPath id="08169f8a31"><path d="M 0 135.738281 L 141.902344 135.738281 L 141.902344 214.722656 L 0 214.722656 Z M 0 135.738281 " clip-rule="nonzero"/></clipPath><clipPath id="e66dc4c642"><path d="M 224.097656 138.191406 L 276.308594 138.191406 L 276.308594 160.277344 L 224.097656 160.277344 Z M 224.097656 138.191406 " clip-rule="nonzero"/></clipPath><clipPath id="e59c30d3a8"><path d="M 95.347656 214.722656 L 147.558594 214.722656 L 147.558594 236.808594 L 95.347656 236.808594 Z M 95.347656 214.722656 " clip-rule="nonzero"/></clipPath></defs><g clip-path="url(#38868641a7)"><rect x="-37.5" width="450" fill="#003f80" y="-37.499999" height="449.999989" fill-opacity="1"/></g><g clip-path="url(#42c0f3f913)"><g clip-path="url(#7f704cdde3)"><g clip-path="url(#150e344bf8)"><path fill="#ffffff" d="M 150.90625 235.5 L 234.464844 151.941406 L 290.464844 207.9375 L 206.902344 291.5 Z M 150.90625 235.5 " fill-opacity="1" fill-rule="nonzero"/></g></g></g><g clip-path="url(#40b9c7fda4)"><path fill="#ffffff" d="M 233.089844 160.277344 L 375.015625 160.277344 L 375.015625 239.261719 L 233.089844 239.261719 Z M 233.089844 160.277344 " fill-opacity="1" fill-rule="nonzero"/></g><g clip-path="url(#078c66539f)"><g clip-path="url(#289047f910)"><g clip-path="url(#a4ffacc510)"><path fill="#ffffff" d="M 224.09375 139.488281 L 140.53125 223.050781 L 84.535156 167.050781 L 168.09375 83.492188 Z M 224.09375 139.488281 " fill-opacity="1" fill-rule="nonzero"/></g></g></g><g clip-path="url(#08169f8a31)"><path fill="#ffffff" d="M 141.902344 214.722656 L -0.0234375 214.722656 L -0.0234375 135.738281 L 141.902344 135.738281 Z M 141.902344 214.722656 " fill-opacity="1" fill-rule="nonzero"/></g><g clip-path="url(#e66dc4c642)"><path fill="#003f80" d="M 224.097656 138.191406 L 276.285156 138.191406 L 276.285156 160.277344 L 224.097656 160.277344 Z M 224.097656 138.191406 " fill-opacity="1" fill-rule="nonzero"/></g><g clip-path="url(#e59c30d3a8)"><path fill="#003f80" d="M 95.347656 214.722656 L 147.535156 214.722656 L 147.535156 236.808594 L 95.347656 236.808594 Z M 95.347656 214.722656 " fill-opacity="1" fill-rule="nonzero"/></g></svg>