<svg width="141" height="141" viewBox="0 0 141 141" fill="none" xmlns="http://www.w3.org/2000/svg">
<g id="Ring">
<path id="Background" d="M70.5 8C78.7076 8 86.8349 9.61661 94.4177 12.7575C102.001 15.8985 108.891 20.5022 114.694 26.3058C120.498 32.1095 125.102 38.9994 128.242 46.5823C131.383 54.1651 133 62.2924 133 70.5C133 78.7076 131.383 86.8349 128.242 94.4177C125.102 102.001 120.498 108.891 114.694 114.694C108.89 120.498 102.001 125.102 94.4177 128.242C86.8348 131.383 78.7076 133 70.5 133C62.2924 133 54.1651 131.383 46.5823 128.242C38.9994 125.102 32.1095 120.498 26.3058 114.694C20.5021 108.89 15.8984 102.001 12.7575 94.4177C9.6166 86.8348 8 78.7076 8 70.5C8 62.2924 9.61662 54.1651 12.7575 46.5823C15.8985 38.9994 20.5022 32.1095 26.3059 26.3058C32.1095 20.5021 38.9995 15.8984 46.5823 12.7575C54.1652 9.6166 62.2924 7.99999 70.5 8L70.5 8Z" stroke="#E7E7E7" stroke-width="16" stroke-linecap="round" stroke-linejoin="round"/>
<path id="Line" d="M70.5 8C83.6987 8 96.5586 12.1784 107.237 19.9364C117.915 27.6944 125.862 38.6337 129.941 51.1864C134.02 63.7392 134.02 77.2609 129.941 89.8136C125.862 102.366 117.915 113.306 107.237 121.064" stroke="#003F80" stroke-width="16" stroke-linecap="round" stroke-linejoin="round"/>
</g>
</svg>
