<svg xmlns="http://www.w3.org/2000/svg" xmlns:xlink="http://www.w3.org/1999/xlink" width="1920" zoomAndPan="magnify" viewBox="0 0 1440 809.999993" height="1080" preserveAspectRatio="xMidYMid meet" version="1.0"><defs><clipPath id="89f8d0a81d"><path d="M 423 444 L 1083.898438 444 L 1083.898438 706.5 L 423 706.5 Z M 423 444 " clip-rule="nonzero"/></clipPath><clipPath id="d12a48f960"><path d="M 769 332 L 1083.898438 332 L 1083.898438 465 L 769 465 Z M 769 332 " clip-rule="nonzero"/></clipPath></defs><g clip-path="url(#89f8d0a81d)"><path fill="#000000" d="M 443.363281 464.785156 L 443.363281 654.339844 C 443.363281 672.007812 457.78125 686.398438 475.445312 686.398438 L 1031.023438 686.398438 C 1048.703125 686.398438 1063.101562 671.988281 1063.101562 654.339844 L 1063.101562 464.785156 Z M 1031.171875 706.441406 L 475.597656 706.441406 C 446.78125 706.441406 423.457031 683.132812 423.457031 654.339844 L 423.457031 454.679688 C 423.457031 449.191406 427.910156 444.738281 433.402344 444.738281 L 1073.199219 444.738281 C 1078.691406 444.738281 1083.144531 449.191406 1083.144531 454.679688 L 1083.144531 654.339844 C 1083.3125 683.132812 1059.839844 706.441406 1031.171875 706.441406 Z M 1031.171875 706.441406 " fill-opacity="1" fill-rule="evenodd"/></g><g clip-path="url(#d12a48f960)"><path fill="#000000" d="M 1067.121094 462.410156 Z M 1073.21875 464.785156 C 1069.800781 464.785156 1066.539062 463.011719 1064.59375 459.882812 L 1064.292969 459.429688 C 1064.140625 459.277344 1064.140625 459.128906 1063.988281 458.976562 L 1008.886719 364.425781 C 1004.28125 356.5625 998.339844 351.960938 992.695312 351.960938 L 778.945312 351.960938 C 773.453125 351.960938 769 347.511719 769 342.023438 C 769 336.535156 773.453125 332.085938 778.945312 332.085938 L 992.695312 332.085938 C 1005.773438 332.085938 1017.945312 340.25 1026.265625 354.507812 L 1080.785156 448.019531 C 1083.898438 451.585938 1083.898438 456.1875 1082.277344 459.449219 C 1080.632812 462.710938 1077.371094 464.785156 1073.652344 464.9375 C 1073.367188 464.785156 1073.21875 464.785156 1073.21875 464.785156 Z M 1073.21875 464.785156 " fill-opacity="1" fill-rule="evenodd"/></g><path fill="#000000" d="M 434.003906 464.03125 C 432.363281 464.03125 430.589844 463.578125 428.945312 462.691406 C 424.191406 459.863281 422.570312 453.792969 425.378906 449.039062 L 480.632812 354.1875 C 488.957031 339.929688 501.128906 331.917969 514.207031 331.917969 L 727.976562 331.917969 C 733.464844 331.917969 737.921875 336.367188 737.921875 341.855469 C 737.921875 347.34375 733.464844 351.792969 727.976562 351.792969 L 514.222656 351.792969 C 508.429688 351.792969 502.488281 356.242188 498.035156 364.257812 L 442.777344 459.109375 C 440.683594 462.257812 437.421875 464.03125 434.003906 464.03125 Z M 434.003906 464.03125 " fill-opacity="1" fill-rule="evenodd"/><path fill="#000000" d="M 434.003906 454.394531 L 439.34375 462.410156 C 442.609375 460.183594 444.683594 454.980469 442.308594 450.378906 Z M 433.402344 464.785156 C 433.25 464.785156 433.097656 464.785156 432.949219 464.785156 C 429.230469 464.632812 425.964844 462.558594 424.324219 459.296875 C 422.398438 455.28125 422.683594 449.492188 428.191406 445.796875 C 432.0625 443.269531 437.25 443.722656 440.664062 446.832031 C 444.082031 450.09375 444.683594 455.148438 442.308594 459.148438 L 441.855469 459.882812 C 440.25 462.84375 436.96875 464.785156 433.402344 464.785156 Z M 433.402344 464.785156 " fill-opacity="1" fill-rule="evenodd"/><path fill="#000000" d="M 538.871094 659.242188 C 533.378906 659.242188 528.925781 654.792969 528.925781 649.304688 L 528.925781 502.199219 C 528.925781 496.710938 533.378906 492.261719 538.871094 492.261719 C 544.359375 492.261719 548.816406 496.710938 548.816406 502.199219 L 548.816406 649.304688 C 548.832031 654.792969 544.378906 659.242188 538.871094 659.242188 Z M 538.871094 659.242188 " fill-opacity="1" fill-rule="evenodd"/><path fill="#000000" d="M 568.136719 512.136719 L 509.46875 512.136719 C 503.976562 512.136719 499.523438 507.6875 499.523438 502.199219 C 499.523438 496.710938 503.976562 492.261719 509.46875 492.261719 L 568.136719 492.261719 C 573.628906 492.261719 578.082031 496.710938 578.082031 502.199219 C 578.253906 507.6875 573.78125 512.136719 568.136719 512.136719 Z M 568.136719 512.136719 " fill-opacity="1" fill-rule="evenodd"/><path fill="#000000" d="M 568.136719 659.242188 L 509.46875 659.242188 C 503.976562 659.242188 499.523438 654.792969 499.523438 649.304688 C 499.523438 643.816406 503.976562 639.367188 509.46875 639.367188 L 568.136719 639.367188 C 573.628906 639.367188 578.082031 643.816406 578.082031 649.304688 C 578.253906 654.792969 573.78125 659.242188 568.136719 659.242188 Z M 568.136719 659.242188 " fill-opacity="1" fill-rule="evenodd"/><path fill="#000000" d="M 718.632812 565.578125 L 755.320312 565.578125 C 780.265625 565.578125 791.722656 551.773438 791.722656 538.855469 C 791.722656 525.941406 780.285156 512.136719 755.320312 512.136719 L 718.632812 512.136719 Z M 755.320312 585.605469 L 708.519531 585.605469 C 703.027344 585.605469 698.574219 581.152344 698.574219 575.667969 L 698.574219 502.332031 C 698.574219 496.84375 703.027344 492.394531 708.519531 492.394531 L 755.320312 492.394531 C 792.304688 492.394531 811.609375 515.851562 811.609375 539.160156 C 811.609375 562.015625 792.304688 585.605469 755.320312 585.605469 Z M 755.320312 585.605469 " fill-opacity="1" fill-rule="evenodd"/><path fill="#000000" d="M 708.519531 512.136719 L 686.382812 512.136719 C 680.890625 512.136719 676.4375 507.6875 676.4375 502.199219 C 676.4375 496.710938 680.890625 492.261719 686.382812 492.261719 L 708.519531 492.261719 C 714.011719 492.261719 718.464844 496.710938 718.464844 502.199219 C 718.632812 507.6875 714.011719 512.136719 708.519531 512.136719 Z M 708.519531 512.136719 " fill-opacity="1" fill-rule="evenodd"/><path fill="#000000" d="M 708.519531 659.242188 C 703.027344 659.242188 698.574219 654.792969 698.574219 649.304688 L 698.574219 575.683594 C 698.574219 570.199219 703.027344 565.746094 708.519531 565.746094 C 714.011719 565.746094 718.464844 570.199219 718.464844 575.683594 L 718.464844 649.304688 C 718.632812 654.792969 714.011719 659.242188 708.519531 659.242188 Z M 708.519531 659.242188 " fill-opacity="1" fill-rule="evenodd"/><path fill="#000000" d="M 727.691406 659.242188 L 689.0625 659.242188 C 683.570312 659.242188 679.117188 654.792969 679.117188 649.304688 C 679.117188 643.816406 683.570312 639.367188 689.0625 639.367188 L 727.691406 639.367188 C 733.183594 639.367188 737.636719 643.816406 737.636719 649.304688 C 737.789062 654.792969 733.335938 659.242188 727.691406 659.242188 Z M 727.691406 659.242188 " fill-opacity="1" fill-rule="evenodd"/><path fill="#000000" d="M 949.027344 659.089844 C 916.496094 659.089844 890.945312 639.347656 890.945312 614.265625 C 890.945312 608.78125 895.398438 604.328125 900.890625 604.328125 C 906.378906 604.328125 910.832031 608.78125 910.832031 614.265625 C 910.832031 627.769531 928.363281 639.195312 949.007812 639.195312 C 969.65625 639.195312 987.183594 627.769531 987.183594 614.265625 C 987.183594 600.3125 970.542969 593.488281 945.140625 584.433594 C 919.742188 575.382812 890.925781 565.144531 890.925781 537.085938 C 890.925781 511.851562 916.476562 492.261719 949.007812 492.261719 C 981.542969 492.261719 1007.09375 512.003906 1007.09375 537.085938 C 1007.09375 542.570312 1002.640625 547.023438 997.148438 547.023438 C 991.65625 547.023438 987.203125 542.570312 987.203125 537.085938 C 987.203125 523.582031 969.671875 512.15625 949.027344 512.15625 C 928.382812 512.15625 910.851562 523.582031 910.851562 537.085938 C 910.851562 550.152344 927.042969 556.828125 951.859375 565.578125 C 977.863281 574.78125 1007.113281 585.171875 1007.113281 614.265625 C 1007.265625 639.347656 981.710938 659.089844 949.027344 659.089844 Z M 949.027344 659.089844 " fill-opacity="1" fill-rule="evenodd"/><path fill="#000000" d="M 722.050781 311.738281 L 753.394531 366.066406 L 784.738281 311.738281 L 770.773438 311.738281 C 765.28125 311.738281 760.828125 307.289062 760.828125 301.800781 L 760.828125 193.429688 L 745.976562 193.429688 L 745.976562 301.78125 C 745.976562 307.269531 741.523438 311.71875 736.03125 311.71875 L 722.050781 311.71875 Z M 753.394531 395.898438 C 749.828125 395.898438 746.5625 393.976562 744.769531 390.847656 L 696.046875 306.6875 C 694.273438 303.574219 694.273438 299.859375 696.046875 296.746094 C 697.820312 293.636719 701.101562 291.695312 704.667969 291.695312 L 725.917969 291.695312 L 725.917969 183.339844 C 725.917969 177.851562 730.371094 173.402344 735.863281 173.402344 L 770.773438 173.402344 C 776.265625 173.402344 780.71875 177.851562 780.71875 183.339844 L 780.71875 291.695312 L 801.96875 291.695312 C 805.535156 291.695312 808.800781 293.617188 810.589844 296.746094 C 812.367188 299.859375 812.367188 303.574219 810.589844 306.6875 L 761.847656 390.847656 C 760.226562 393.976562 756.941406 395.898438 753.394531 395.898438 Z M 753.394531 395.898438 " fill-opacity="1" fill-rule="evenodd"/><path fill="#000000" d="M 857.371094 237.515625 L 888.71875 291.695312 L 920.0625 237.515625 L 906.097656 237.515625 C 900.605469 237.515625 896.152344 233.066406 896.152344 227.578125 L 896.152344 119.207031 L 881.453125 119.207031 L 881.453125 227.578125 C 881.453125 233.066406 877 237.515625 871.507812 237.515625 Z M 888.71875 321.527344 C 885.152344 321.527344 881.886719 319.601562 880.09375 316.472656 L 831.367188 232.3125 C 829.59375 229.199219 829.59375 225.484375 831.367188 222.375 C 833.140625 219.261719 836.425781 217.320312 839.992188 217.320312 L 861.242188 217.320312 L 861.242188 108.964844 C 861.242188 103.480469 865.695312 99.027344 871.1875 99.027344 L 905.945312 99.027344 C 911.4375 99.027344 915.890625 103.480469 915.890625 108.964844 L 915.890625 217.320312 L 937.140625 217.320312 C 940.707031 217.320312 943.972656 219.246094 945.765625 222.375 C 947.539062 225.484375 947.539062 229.351562 945.765625 232.3125 L 897.039062 316.472656 C 895.546875 319.601562 892.285156 321.527344 888.71875 321.527344 Z M 888.71875 321.527344 " fill-opacity="1" fill-rule="evenodd"/><path fill="#000000" d="M 586.554688 219.113281 L 617.902344 273.441406 L 649.246094 219.113281 L 635.28125 219.113281 C 629.789062 219.113281 625.335938 214.660156 625.335938 209.175781 L 625.335938 100.953125 L 610.636719 100.953125 L 610.636719 209.175781 C 610.636719 214.660156 606.183594 219.113281 600.691406 219.113281 Z M 618.050781 303.421875 C 614.484375 303.421875 611.222656 301.5 609.429688 298.371094 L 560.722656 214.210938 C 558.949219 211.097656 558.949219 207.382812 560.722656 204.273438 C 562.496094 201.160156 565.78125 199.21875 569.347656 199.21875 L 590.59375 199.21875 L 590.59375 90.996094 C 590.59375 85.507812 595.046875 81.058594 600.539062 81.058594 L 635.28125 81.058594 C 640.773438 81.058594 645.226562 85.507812 645.226562 90.996094 L 645.226562 199.21875 L 666.476562 199.21875 C 670.042969 199.21875 673.304688 201.140625 675.097656 204.273438 C 676.890625 207.402344 676.871094 211.097656 675.097656 214.210938 L 626.675781 298.371094 C 624.882812 301.5 621.617188 303.421875 618.050781 303.421875 Z M 618.050781 303.421875 " fill-opacity="1" fill-rule="evenodd"/></svg>