<svg width="20" height="21" viewBox="0 0 20 21" fill="none" xmlns="http://www.w3.org/2000/svg">
<g id="life-buoy">
<path id="Icon" d="M4.10866 4.60841L7.64199 8.14175M12.3587 12.8584L15.892 16.3917M15.892 4.60841L12.3587 8.14175L15.3003 5.20008M4.10866 16.3917L7.64199 12.8584M18.3337 10.5001C18.3337 15.1025 14.6027 18.8334 10.0003 18.8334C5.39795 18.8334 1.66699 15.1025 1.66699 10.5001C1.66699 5.89771 5.39795 2.16675 10.0003 2.16675C14.6027 2.16675 18.3337 5.89771 18.3337 10.5001ZM13.3337 10.5001C13.3337 12.341 11.8413 13.8334 10.0003 13.8334C8.15938 13.8334 6.66699 12.341 6.66699 10.5001C6.66699 8.65913 8.15938 7.16675 10.0003 7.16675C11.8413 7.16675 13.3337 8.65913 13.3337 10.5001Z" stroke="#198BFF" stroke-width="2" stroke-linecap="round" stroke-linejoin="round"/>
</g>
</svg>
