<svg xmlns="http://www.w3.org/2000/svg" width="20" height="20" viewBox="0 0 20 20" fill="none">
  <path d="M18.25 10C18.25 9.58579 17.9142 9.25001 17.5 9.25001C17.0858 9.25001 16.75 9.58579 16.75 10H18.25ZM3.25 10C3.25 9.58579 2.91421 9.25001 2.5 9.25001C2.08579 9.25001 1.75 9.58579 1.75 10H3.25ZM16.75 4.16667C16.75 4.18355 16.7404 4.319 16.4464 4.55073C16.1608 4.77579 15.7011 5.01128 15.0661 5.22293C13.8041 5.64361 12.0129 5.91667 10 5.91667V7.41667C12.1292 7.41667 14.088 7.13009 15.5405 6.64595C16.2628 6.40519 16.9014 6.10197 17.3748 5.72884C17.8398 5.36238 18.25 4.84015 18.25 4.16667H16.75ZM10 5.91667C7.98711 5.91667 6.19591 5.64361 4.93387 5.22293C4.29893 5.01128 3.8392 4.77579 3.55362 4.55073C3.25958 4.319 3.25 4.18355 3.25 4.16667H1.75C1.75 4.84015 2.16016 5.36238 2.62516 5.72884C3.09861 6.10197 3.73724 6.40519 4.45953 6.64595C5.91195 7.13009 7.87075 7.41667 10 7.41667V5.91667ZM3.25 4.16667C3.25 4.14979 3.25958 4.01435 3.55362 3.78262C3.8392 3.55755 4.29893 3.32206 4.93387 3.11042C6.19591 2.68974 7.98711 2.41667 10 2.41667V0.916672C7.87075 0.916672 5.91195 1.20325 4.45953 1.68739C3.73724 1.92816 3.09861 2.23138 2.62516 2.6045C2.16016 2.97096 1.75 3.49319 1.75 4.16667H3.25ZM10 2.41667C12.0129 2.41667 13.8041 2.68974 15.0661 3.11042C15.7011 3.32206 16.1608 3.55755 16.4464 3.78262C16.7404 4.01435 16.75 4.14979 16.75 4.16667H18.25C18.25 3.49319 17.8398 2.97096 17.3748 2.6045C16.9014 2.23138 16.2628 1.92816 15.5405 1.68739C14.088 1.20325 12.1292 0.916672 10 0.916672V2.41667ZM16.75 10C16.75 10.0201 16.7391 10.156 16.4483 10.3864C16.165 10.6109 15.7081 10.846 15.075 11.0574C13.8167 11.4774 12.0258 11.75 10 11.75V13.25C12.1409 13.25 14.1 12.9642 15.55 12.4802C16.2711 12.2394 16.908 11.936 17.3799 11.562C17.8443 11.194 18.25 10.6716 18.25 10H16.75ZM10 11.75C7.97424 11.75 6.18335 11.4774 4.925 11.0574C4.29195 10.846 3.83505 10.6109 3.55173 10.3864C3.26094 10.156 3.25 10.0201 3.25 10H1.75C1.75 10.6716 2.15573 11.194 2.62014 11.562C3.09204 11.936 3.72888 12.2394 4.45 12.4802C5.89998 12.9642 7.85909 13.25 10 13.25V11.75ZM1.75 4.16667V15.8333H3.25V4.16667H1.75ZM1.75 15.8333C1.75 16.505 2.15573 17.0274 2.62014 17.3954C3.09204 17.7693 3.72888 18.0728 4.45 18.3135C5.89998 18.7976 7.85909 19.0833 10 19.0833V17.5833C7.97424 17.5833 6.18335 17.3108 4.925 16.8907C4.29195 16.6793 3.83505 16.4442 3.55173 16.2197C3.26094 15.9893 3.25 15.8534 3.25 15.8333H1.75ZM10 19.0833C12.1409 19.0833 14.1 18.7976 15.55 18.3135C16.2711 18.0728 16.908 17.7693 17.3799 17.3954C17.8443 17.0274 18.25 16.505 18.25 15.8333H16.75C16.75 15.8534 16.7391 15.9893 16.4483 16.2197C16.165 16.4442 15.7081 16.6793 15.075 16.8907C13.8167 17.3108 12.0258 17.5833 10 17.5833V19.0833ZM18.25 15.8333V4.16667H16.75V15.8333H18.25Z" fill="#007EFF"/>
</svg>