<svg width="20" height="20" viewBox="0 0 20 20" fill="none" xmlns="http://www.w3.org/2000/svg">
<g id="webcam-01">
<path id="Icon" d="M9.99967 15C13.6816 15 16.6663 12.0152 16.6663 8.33329C16.6663 4.65139 13.6816 1.66663 9.99967 1.66663C6.31778 1.66663 3.33301 4.65139 3.33301 8.33329C3.33301 12.0152 6.31778 15 9.99967 15ZM9.99967 15V18.3333M9.99967 18.3333H5.83301M9.99967 18.3333H14.1663M12.4997 8.33329C12.4997 9.714 11.3804 10.8333 9.99967 10.8333C8.61896 10.8333 7.49967 9.714 7.49967 8.33329C7.49967 6.95258 8.61896 5.83329 9.99967 5.83329C11.3804 5.83329 12.4997 6.95258 12.4997 8.33329Z" stroke="#111111" stroke-width="1.5" stroke-linecap="round" stroke-linejoin="round"/>
</g>
</svg>
