<svg width="20" height="20" viewBox="0 0 20 20" fill="none" xmlns="http://www.w3.org/2000/svg">
<g id="Wireless">
<path id="Icon" d="M3.68693 9.88205C3.36866 10.1471 3.32555 10.6201 3.59065 10.9383C3.85574 11.2566 4.32866 11.2997 4.64693 11.0346L3.68693 9.88205ZM10.0336 8.3351V7.5851V8.3351ZM15.4203 11.0346C15.7385 11.2997 16.2114 11.2566 16.4765 10.9383C16.7416 10.6201 16.6985 10.1471 16.3803 9.88205L15.4203 11.0346ZM0.687656 6.93737C0.376927 7.21127 0.347071 7.6852 0.62097 7.99593C0.894868 8.30666 1.3688 8.33652 1.67953 8.06262L0.687656 6.93737ZM18.321 8.06262C18.6317 8.33652 19.1057 8.30666 19.3796 7.99593C19.6535 7.6852 19.6236 7.21127 19.3129 6.93737L18.321 8.06262ZM6.67422 12.8136C6.33655 13.0535 6.25729 13.5217 6.49719 13.8594C6.73709 14.197 7.2053 14.2763 7.54297 14.0364L6.67422 12.8136ZM12.4659 14.0364C12.8036 14.2763 13.2718 14.197 13.5117 13.8594C13.7516 13.5217 13.6723 13.0535 13.3346 12.8136L12.4659 14.0364ZM10.0003 15.9167C9.58605 15.9167 9.25026 16.2524 9.25026 16.6667C9.25026 17.0809 9.58605 17.4167 10.0003 17.4167V15.9167ZM10.0086 17.4167C10.4228 17.4167 10.7586 17.0809 10.7586 16.6667C10.7586 16.2524 10.4228 15.9167 10.0086 15.9167V17.4167ZM4.64693 11.0346C6.1593 9.77492 8.06532 9.0851 10.0336 9.0851V7.5851C7.71454 7.5851 5.46883 8.39785 3.68693 9.88205L4.64693 11.0346ZM10.0336 9.0851C12.0019 9.0851 13.9079 9.77492 15.4203 11.0346L16.3803 9.88205C14.5984 8.39785 12.3526 7.5851 10.0336 7.5851V9.0851ZM1.67953 8.06262C3.9779 6.03667 6.93645 4.91887 10.0003 4.91887V3.41887C6.57123 3.41887 3.26 4.66992 0.687656 6.93737L1.67953 8.06262ZM10.0003 4.91887C13.0641 4.91887 16.0226 6.03667 18.321 8.06262L19.3129 6.93737C16.7405 4.66992 13.4293 3.41887 10.0003 3.41887V4.91887ZM7.54297 14.0364C8.26207 13.5255 9.12232 13.251 10.0044 13.251V11.751C8.81099 11.751 7.64712 12.1224 6.67422 12.8136L7.54297 14.0364ZM10.0044 13.251C10.8865 13.251 11.7468 13.5255 12.4659 14.0364L13.3346 12.8136C12.3617 12.1224 11.1979 11.751 10.0044 11.751V13.251ZM10.0003 17.4167H10.0086V15.9167H10.0003V17.4167Z" fill="#007EFF"/>
</g>
</svg>
